<svg xmlns="http://www.w3.org/2000/svg" width="133" height="82" viewBox="0 0 35.19 21.696"><defs><filter id="a" x="-.064" width="1.129" y="-.038" height="1.076" color-interpolation-filters="sRGB"><feGaussianBlur stdDeviation=".304"/></filter></defs><path d="M7.522 0c-.135 0-.052.566.186 1.258.238.692.475 1.879.472 2.263-.002.24-.07.3-.161.27-.09-.028-.29-.505-.378-.627-.16-.221-.093.684-.207 1.754-.1.943-.488 2.317-.86 3.055-.443.877-.496 1.303-.793 2.807 0 0-.15 1.615-.1 2.517.285 1.27.698 1.91.698 1.91.43.82 1.367 2.048 2.082 2.727.716.68 1.396 1.235 1.512 1.235.115 0 .15-1.078.079-2.395-.09-1.646.039-3.104.412-4.658.299-1.244.532-3.112.517-4.151-.014-1.057-.291-2.634-.629-3.577-.331-.928-1.049-2.295-1.593-3.038C8.214.608 7.657 0 7.522 0z" fill="#fff"/><path d="M24.12 278.102s.495.082.575.35c.022.377-.743.37-.743.37.004-.24.066-.48.167-.72zm.228-2.43a.77.77 0 00-.202.037c-.249.083-.619.695-.821 1.358l-.37 1.207h-.908c-.5 0-.995.122-1.1.27-.107.152.144.27.577.27h.768l-2.136 3.913c-1.174 2.153-2.88 5.464-3.791 7.358-.91 1.894-1.754 3.717-1.875 4.051-.12.334-.105.606.034.603.138-.002 1.162-.591 2.274-1.309s2.69-2.082 3.505-3.032c.816-.949 1.865-2.395 2.332-3.212a48.67 48.67 0 001.685-3.336c.46-1.016.757-1.918.66-2.003-.098-.085-.524.13-.948.478-.424.348-.77.5-.77.337 0-.163.157-.893.35-1.622.284-1.08.513-1.379 1.234-1.617.573-.19.885-.485.885-.84 0-.302-.288-.725-.64-.94l-.64-.393.4-.56c.282-.396.304-.647.075-.848-.135-.118-.366-.181-.578-.17z" fill="#af0e44" filter="url(#a)" transform="translate(0 -275.304)"/><path d="M18.77 3.035c-.185-.002-.699.246-1.236.604-.613.41-1.606 1.429-2.205 2.265-.6.836-1.317 1.824-1.593 2.196l-.503.675-.17-1.485-.17-1.485-.524 1.004c-.289.552-.525 1.474-.525 2.049s-.29 2.25-.645 3.721c-.433 1.797-.584 3.137-.462 4.08.1.772.55 2.268.996 3.324.448 1.055.91 1.82 1.028 1.7.118-.12.594-1.487 1.058-3.036.464-1.55 1.491-3.988 2.22-5.444l1.314-2.626c.072-.469.152-1.377-.278-2.353-.308-.547-.328.257-.476.338-.149.08-.123-.232-.12-.649.004-.417.28-1.283.613-1.925.333-.642.9-1.53 1.261-1.973.36-.444.575-.877.476-.963-.012-.011-.032-.016-.058-.017z" fill="#424649"/><path d="M6.687 4.555l-1.356.085-1.356.085-1.902 6.48C1.324 13.755.614 16.32 0 18.899h4.363l.504-1.756c.412-1.434.44-1.983.151-2.985-.194-.675-.283-1.988-.198-2.917.085-.93.458-2.289.829-3.022.37-.733.755-1.857.856-2.498zM25.829 4.624a2.925 2.925 0 00-.33.015c-.62.063-.876.257-.951.722l-.103.636.951-.492c.524-.27.952-.595.952-.721 0-.095-.215-.155-.52-.16zM27.59 7.88l1.217.033c.514.014 1.337.026 1.665.18.24.699.253 1.21.146 1.903-.234 1.513-.234 1.327-.73 2.606-.415 1.116-.773 1.717-1.217 2.211-.324.152-1.338.293-2.028.293s-1.137 0-1.137-.061.207-.973.643-2.434c.437-1.46.979-3.212 1.142-3.769zm1.724-3.29h-2.607l-.69 1.822a56.319 56.319 0 01-1.697 3.885c-.553 1.135-1.586 2.867-2.294 3.849-.71.982-1.47 2.385-1.69 3.118-.222.733-.314 1.412-.204 1.51.109.097 2.281.13 4.827.073 3.585-.08 4.849-.207 5.604-.56.536-.251 1.39-.896 1.895-1.433.506-.536 1.208-1.745 1.561-2.686.353-.94.793-2.538.979-3.551.185-1.014.247-2.263.137-2.778-.11-.515-.405-1.284-.656-1.709-.252-.425-.93-.945-1.507-1.156-.627-.23-2.102-.384-3.658-.384z" fill="#fff"/></svg>